<svg width="733" height="601" viewBox="0 0 733 601" fill="none" xmlns="http://www.w3.org/2000/svg">
<path d="M24.8486 558.423C29.8257 558.423 34.5429 556.974 39 554.077C43.4571 551.18 45.6857 547.763 45.6857 543.826C45.6857 541.003 44.5714 538.663 42.3429 536.806C38.48 533.686 33.0943 532.126 26.1857 532.126C24.4771 532.126 23.5486 532.163 23.4 532.237C23.3257 532.311 23.2886 535.766 23.2886 542.6C23.2886 549.434 23.6229 554.671 24.2914 558.311C24.44 558.386 24.6257 558.423 24.8486 558.423ZM33.54 518.643C35.4714 517.826 37.1057 516.637 38.4429 515.077C39.8543 513.443 40.56 511.771 40.56 510.063C40.56 508.28 40.04 506.869 39 505.829C37.96 504.789 36.66 504.009 35.1 503.489C33.54 502.969 32.0171 502.597 30.5314 502.374C29.12 502.151 27.7457 502.04 26.4086 502.04C25.0714 502.04 24.3286 502.114 24.18 502.263C24.1057 502.337 23.9571 505.383 23.7343 511.4C23.5857 517.343 23.5114 520.5 23.5114 520.871C23.5857 520.946 23.9571 520.983 24.6257 520.983C25.3686 520.983 26.5571 520.797 28.1914 520.426C29.8257 519.98 31.6086 519.386 33.54 518.643ZM9.36 550.4L9.91714 507.834C9.91714 504.863 9.84286 503.303 9.69429 503.154C8.87714 502.337 7.8 500.554 6.46286 497.806C5.12571 494.983 4.45714 493.163 4.45714 492.346L4.56857 492.011C5.01429 491.64 7.35429 491.306 11.5886 491.009C15.8971 490.711 20.1314 490.563 24.2914 490.563C28.5257 490.563 32.3886 490.823 35.88 491.343C39.3714 491.863 42.7514 492.68 46.02 493.794C49.3629 494.909 52.0371 496.58 54.0429 498.809C56.0486 500.963 57.0514 503.414 57.0514 506.163C57.0514 508.837 56.4571 511.289 55.2686 513.517C54.1543 515.671 52.7429 517.491 51.0343 518.977C48.4343 521.206 45.9086 522.914 43.4571 524.103C43.3086 524.251 43.2343 524.363 43.2343 524.437C43.3086 524.511 43.8286 524.697 44.7943 524.994C45.8343 525.291 46.8 525.663 47.6914 526.109C48.6571 526.48 49.8086 527 51.1457 527.669C52.4829 528.337 53.7086 529.154 54.8229 530.12C55.9371 531.011 56.9771 532.051 57.9429 533.24C60.0971 535.766 61.1743 539.22 61.1743 543.603C61.1743 547.911 59.8371 551.96 57.1629 555.749C54.4886 559.537 50.9229 562.509 46.4657 564.663C37.5514 568.971 27.4114 571.126 16.0457 571.126L10.3629 570.791C10.14 570.494 9.91714 567.82 9.69429 562.769C9.47143 557.643 9.36 553.52 9.36 550.4ZM100.829 556.083C101.126 556.083 101.275 557.94 101.275 561.654C101.275 565.294 101.052 567.114 100.606 567.114C89.8346 567.114 82.1089 567.634 77.4289 568.674C77.2061 568.674 77.0946 567.04 77.0946 563.771C77.0946 560.503 77.3546 558.534 77.8746 557.866C78.7661 557.42 80.2146 557.197 82.2204 557.197C82.0718 554.671 81.9975 545.683 81.9975 530.231C81.9975 514.706 82.1832 505.829 82.5546 503.6H82.3318C80.3261 503.6 78.6546 503.823 77.3175 504.269C77.1689 504.269 77.0946 502.597 77.0946 499.254C77.0946 495.837 77.3175 493.906 77.7632 493.46C78.2089 493.014 81.1804 492.606 86.6775 492.234C92.1746 491.863 96.7804 491.677 100.495 491.677C100.718 491.677 100.829 492.271 100.829 493.46L100.495 501.706C100.495 502.003 100.383 502.151 100.16 502.151C97.6346 502.151 96.2975 502.226 96.1489 502.374C96.0004 502.449 95.8889 503.971 95.8146 506.943C95.5175 518.68 95.3689 528.857 95.3689 537.474C95.3689 546.017 95.6661 552.257 96.2604 556.194C97.2261 556.12 98.7489 556.083 100.829 556.083ZM149.898 569.343C138.83 569.343 130.621 566.149 125.273 559.76C119.998 553.371 117.361 545.349 117.361 535.691C117.361 531.011 117.918 526.629 119.033 522.543C120.147 518.457 121.187 515.56 122.153 513.851C123.118 512.143 123.898 511.14 124.493 510.843C125.087 510.471 127.427 510.286 131.513 510.286H133.63C133.63 506.571 134.336 503.34 135.747 500.591C137.233 497.843 139.127 495.8 141.43 494.463C145.738 492.011 149.824 490.786 153.687 490.786C174.338 490.786 184.664 503.786 184.664 529.786C184.664 537.883 183.29 545.089 180.541 551.403C178.981 554.969 176.938 558.051 174.413 560.651C171.887 563.177 168.507 565.257 164.273 566.891C160.113 568.526 155.321 569.343 149.898 569.343ZM170.29 528.894C170.29 511.437 165.09 502.709 154.69 502.709C151.718 502.709 149.416 503.563 147.781 505.271C146.221 506.98 145.441 509.171 145.441 511.846C145.441 514.446 146.258 517.529 147.893 521.094C149.601 524.66 151.31 527.483 153.018 529.563L155.47 532.683C155.47 533.574 154.096 534.429 151.347 535.246C148.598 535.989 146.407 536.36 144.773 536.36C144.401 536.36 143.621 535.654 142.433 534.243C141.318 532.831 139.981 530.677 138.421 527.78C136.936 524.809 135.858 521.689 135.19 518.42C134.076 519.534 133.184 521.8 132.516 525.217C131.847 528.634 131.513 531.94 131.513 535.134C131.513 541.374 133.258 546.723 136.75 551.18C140.241 555.563 144.661 557.754 150.01 557.754C163.53 557.754 170.29 548.134 170.29 528.894ZM210.57 557.086L211.35 510.731C211.35 506.943 211.239 504.974 211.016 504.826C210.868 504.603 210.273 504.491 209.233 504.491C206.93 504.491 202.845 504.863 196.976 505.606L193.968 506.051L193.633 503.154C193.633 499.589 194.228 496.469 195.416 493.794L196.085 492.457C201.879 492.383 208.416 492.16 215.696 491.789C223.05 491.343 229.662 491.12 235.53 491.12C241.473 491.12 244.445 491.269 244.445 491.566C244.445 493.72 244.259 496.32 243.888 499.366C243.516 502.337 243.07 504.083 242.55 504.603C240.842 504.231 237.685 504.046 233.079 504.046C228.473 504.046 226.059 504.157 225.836 504.38C225.316 504.9 225.056 514.594 225.056 533.463C225.056 552.331 226.17 563.809 228.399 567.894V568.006C228.399 568.674 226.95 569.306 224.053 569.9C221.156 570.494 218.853 570.791 217.145 570.791C214.768 570.791 212.836 570.457 211.35 569.789C210.83 569.194 210.57 564.96 210.57 557.086ZM266.474 522.431L266.586 510.397C266.586 507.203 266.512 505.457 266.363 505.16C265.546 504.343 264.469 502.374 263.132 499.254C261.869 496.134 261.237 494.129 261.237 493.237C262.054 492.42 275.092 492.011 300.349 492.011C306.589 492.011 309.709 492.16 309.709 492.457C309.709 494.017 309.337 495.726 308.594 497.583C307.926 499.44 307.183 500.926 306.366 502.04C305.623 503.154 305.066 503.674 304.694 503.6C304.397 503.451 302.874 503.377 300.126 503.377C297.452 503.377 293.7 503.563 288.872 503.934C284.043 504.231 281.406 504.603 280.96 505.049C280.514 505.494 280.292 509.58 280.292 517.306L280.403 521.986C283.374 521.911 287.757 521.874 293.552 521.874C299.346 521.874 302.243 521.986 302.243 522.209C302.243 524.883 301.352 527.929 299.569 531.346C298.9 532.534 298.492 533.091 298.343 533.017C296.412 533.017 293.106 533.203 288.426 533.574C283.746 533.871 281.034 534.243 280.292 534.689C280.217 534.763 280.18 537.883 280.18 544.049C280.18 550.214 280.366 553.483 280.737 553.854C281.926 555.043 288.314 555.637 299.903 555.637C304.583 555.637 307.74 555.526 309.374 555.303C311.009 555.006 311.826 554.894 311.826 554.969C311.826 556.751 311.232 558.869 310.043 561.32C308.854 563.771 307.592 565.629 306.254 566.891C305.512 567.634 298.826 568.006 286.197 568.006C273.643 568.006 267.143 567.709 266.697 567.114C266.252 566.743 266.029 563.177 266.029 556.417C266.029 549.583 266.103 542.377 266.252 534.8C264.914 533.611 263.614 531.754 262.352 529.229C261.163 526.703 260.569 524.549 260.569 522.766C260.569 522.691 262.537 522.58 266.474 522.431ZM358.763 569.454C347.918 569.454 339.709 566.334 334.138 560.094C328.566 553.854 325.781 545.794 325.781 535.914C325.781 527.52 327.638 519.72 331.352 512.514C333.506 508.28 336.218 504.566 339.486 501.371C342.755 498.177 347.175 495.54 352.746 493.46C358.318 491.38 364.632 490.34 371.689 490.34C374.066 490.34 376.183 490.563 378.041 491.009C379.898 491.454 380.826 491.751 380.826 491.9C380.826 495.466 380.566 499.551 380.046 504.157C379.601 508.689 379.341 510.991 379.266 511.066C378.895 511.437 377.335 512.031 374.586 512.849C371.912 513.666 369.906 514.074 368.569 514.074V513.406C368.569 510.063 368.086 507.723 367.121 506.386C366.155 505.049 364.483 504.38 362.106 504.38C356.832 504.38 351.929 507.166 347.398 512.737C342.866 518.234 340.601 525.811 340.601 535.469C340.601 540.594 341.863 545.2 344.389 549.286C345.726 551.44 347.658 553.186 350.183 554.523C352.783 555.86 355.829 556.529 359.321 556.529C366.303 556.529 373.101 553.297 379.712 546.834C380.009 546.834 380.603 547.317 381.495 548.283C382.461 549.174 383.389 550.4 384.281 551.96C386.138 554.931 387.066 556.751 387.066 557.42C387.066 558.089 385.915 559.351 383.612 561.209C381.309 562.991 377.818 564.811 373.138 566.669C368.458 568.526 363.666 569.454 358.763 569.454ZM423.348 522.32L438.168 522.209C443.666 522.209 446.414 522.283 446.414 522.431C446.414 512.7 446.563 505.606 446.86 501.149C447.157 496.691 447.306 494.389 447.306 494.24C447.306 494.091 447.826 493.72 448.866 493.126C449.98 492.531 451.503 491.974 453.434 491.454C455.366 490.86 457 490.563 458.337 490.563C459.748 490.563 460.454 490.711 460.454 491.009C459.637 501.929 459.229 513.591 459.229 525.997C459.229 538.329 459.6 547.503 460.343 553.52C461.086 559.537 462.72 563.809 465.246 566.334C465.246 566.483 464.874 566.854 464.131 567.449C463.463 568.043 461.791 568.749 459.117 569.566C456.517 570.383 454.066 570.791 451.763 570.791L450.426 570.569C449.014 569.157 448.011 566.26 447.417 561.877C446.897 557.42 446.6 548.097 446.526 533.909C445.263 533.834 441.214 533.797 434.38 533.797C427.62 533.797 423.906 533.909 423.237 534.131C423.163 536.211 423.126 540.817 423.126 547.949C423.126 555.006 423.423 560.911 424.017 565.666C424.017 566.483 422.828 567.151 420.451 567.671C418.074 568.266 415.846 568.563 413.766 568.563C411.76 568.563 410.534 568.34 410.088 567.894C409.717 567.523 409.531 560.726 409.531 547.503V534.354C408.566 533.463 407.451 531.754 406.188 529.229C404.926 526.703 404.294 524.623 404.294 522.989C404.294 522.766 406.114 522.654 409.754 522.654C409.828 517.38 409.866 511.326 409.866 504.491V502.151C407.934 498.586 406.968 495.057 406.968 491.566C406.968 491.269 407.006 491.083 407.08 491.009C407.526 490.934 407.934 490.897 408.306 490.897C408.677 490.897 409.494 490.897 410.757 490.897C412.094 490.897 413.951 491.157 416.328 491.677C418.706 492.123 420.6 492.643 422.011 493.237C423.423 493.831 424.128 494.314 424.128 494.686C423.608 498.326 423.348 506.794 423.348 520.091V522.32ZM560.42 502.374C559.231 502.226 557.857 502.151 556.297 502.151C554.811 502.151 552.954 502.3 550.725 502.597C548.571 502.894 546.305 503.377 543.928 504.046C541.625 504.64 539.731 505.606 538.245 506.943C536.76 508.28 536.017 509.914 536.017 511.846C536.017 513.703 537.131 515.374 539.36 516.86C541.662 518.271 544.411 519.609 547.605 520.871C550.8 522.06 553.994 523.434 557.188 524.994C560.457 526.554 563.205 528.857 565.434 531.903C567.737 534.874 568.888 538.477 568.888 542.711C568.888 550.214 565.285 556.603 558.08 561.877C550.948 567.077 541.922 569.677 531.002 569.677C525.505 569.677 521.42 569.38 518.745 568.786C518.077 568.117 517.742 564.143 517.742 556.863C517.742 549.509 517.891 545.089 518.188 543.603C518.411 542.934 519.711 542.117 522.088 541.151C524.465 540.186 526.768 539.703 528.997 539.703C528.997 548.469 529.925 553.78 531.782 555.637C532.525 556.38 533.937 556.751 536.017 556.751C540.771 556.751 544.894 555.414 548.385 552.74C551.951 550.066 553.734 546.909 553.734 543.269C553.734 540.817 552.582 538.663 550.28 536.806C547.977 534.949 545.154 533.351 541.811 532.014C538.542 530.603 535.274 529.154 532.005 527.669C528.737 526.109 525.951 523.991 523.648 521.317C521.345 518.643 520.194 515.486 520.194 511.846C520.194 506.423 523.425 501.483 529.888 497.026C536.425 492.494 545.86 490.229 558.191 490.229C561.088 490.229 562.722 490.414 563.094 490.786C563.168 491.009 563.205 491.566 563.205 492.457C563.205 493.274 562.945 494.909 562.425 497.36C561.905 499.811 561.237 501.483 560.42 502.374ZM618.225 569.343C607.156 569.343 598.948 566.149 593.599 559.76C588.325 553.371 585.688 545.349 585.688 535.691C585.688 531.011 586.245 526.629 587.359 522.543C588.473 518.457 589.513 515.56 590.479 513.851C591.445 512.143 592.225 511.14 592.819 510.843C593.413 510.471 595.753 510.286 599.839 510.286H601.956C601.956 506.571 602.662 503.34 604.073 500.591C605.559 497.843 607.453 495.8 609.756 494.463C614.065 492.011 618.151 490.786 622.013 490.786C642.665 490.786 652.991 503.786 652.991 529.786C652.991 537.883 651.616 545.089 648.868 551.403C647.308 554.969 645.265 558.051 642.739 560.651C640.213 563.177 636.833 565.257 632.599 566.891C628.439 568.526 623.648 569.343 618.225 569.343ZM638.616 528.894C638.616 511.437 633.416 502.709 623.016 502.709C620.045 502.709 617.742 503.563 616.108 505.271C614.548 506.98 613.768 509.171 613.768 511.846C613.768 514.446 614.585 517.529 616.219 521.094C617.928 524.66 619.636 527.483 621.345 529.563L623.796 532.683C623.796 533.574 622.422 534.429 619.673 535.246C616.925 535.989 614.733 536.36 613.099 536.36C612.728 536.36 611.948 535.654 610.759 534.243C609.645 532.831 608.308 530.677 606.748 527.78C605.262 524.809 604.185 521.689 603.516 518.42C602.402 519.534 601.511 521.8 600.842 525.217C600.173 528.634 599.839 531.94 599.839 535.134C599.839 541.374 601.585 546.723 605.076 551.18C608.568 555.563 612.988 557.754 618.336 557.754C631.856 557.754 638.616 548.134 638.616 528.894ZM689.555 569.343L689.889 538.7V537.251C687.809 534.354 684.095 528.151 678.746 518.643C673.472 509.06 670.612 503.971 670.166 503.377C668.458 501.669 666.118 500.814 663.146 500.814C663.072 500.666 663.035 500.257 663.035 499.589C663.035 498.92 663.258 497.88 663.703 496.469C664.223 494.983 664.558 494.166 664.706 494.017C664.929 493.794 665.635 493.571 666.823 493.349C670.018 492.754 673.249 492.457 676.518 492.457C679.786 492.457 681.495 492.531 681.643 492.68C681.866 492.829 682.906 494.871 684.763 498.809C690.558 511.14 694.829 519.386 697.578 523.546H697.801C698.246 521.911 701.403 516.006 707.272 505.829C713.215 495.651 716.669 490.563 717.635 490.563C719.863 490.563 722.092 490.86 724.321 491.454C726.549 492.049 728.295 492.717 729.558 493.46C730.821 494.129 731.415 494.686 731.341 495.131C727.403 499.514 722.166 506.571 715.629 516.303C709.166 525.96 705.341 532.943 704.152 537.251C704.003 538.737 703.929 543.529 703.929 551.626C703.929 559.723 704.226 565.034 704.821 567.56C704.821 568.451 703.632 569.12 701.255 569.566C698.878 570.011 696.538 570.234 694.235 570.234C692.006 570.234 690.446 569.937 689.555 569.343Z" fill="white"/>
<path d="M209 126V10H517V126" stroke="#E0D650" stroke-width="20"/>
<path d="M517 335V451L209 451V335" stroke="#00AA5A" stroke-width="20"/>
<path d="M346.5 343L350.161 415.4C350.717 426.394 349.48 437.404 346.5 448V448H358.5V448C356.176 437.377 355.216 426.5 355.644 415.634L358.5 343" stroke="#00AA5A" stroke-width="15.1317"/>
<circle cx="362" cy="126" r="39" fill="#E0D650"/>
<path d="M246.409 161.77C189 124.311 119.985 144.737 119.985 144.737L129.882 181.667C145.896 241.419 185.65 292.023 239.914 321.726C244.991 324.505 250.319 326.798 255.828 328.574L268.645 332.706C287.617 338.821 307.603 341.166 327.476 339.609L361.416 336.949C361.416 336.949 362.741 279.493 327.99 238.024C319.772 228.217 313.011 218.05 308.364 212.066C293.362 192.746 290.242 190.37 246.409 161.77Z" fill="#00AA5A" stroke="#00AA5A" stroke-width="15.1317"/>
<path d="M557.975 261.622C606.552 213.256 600.921 141.502 600.921 141.502L562.74 143.504C500.964 146.745 443.201 175.11 402.865 222.012C399.091 226.4 395.74 231.135 392.858 236.154L386.152 247.833C376.225 265.119 369.776 284.18 367.168 303.942L362.713 337.694C362.713 337.694 418.638 350.936 466.426 325.566C477.727 319.567 489.078 315.067 495.897 311.766C517.914 301.109 520.886 298.551 557.975 261.622Z" fill="#00AA5A" stroke="#00AA5A" stroke-width="15.1317"/>
<path d="M405 299.5C462.454 260.095 492.808 236.561 550 190C491.819 231.214 460.141 255.284 405 299.5Z" fill="white"/>
<path d="M160 174C222.297 229.811 254.502 257.209 312.005 303.638C254.356 251.16 220.95 223.024 160 174Z" fill="white"/>
</svg>
