<svg width="840" height="625" viewBox="0 0 840 625" fill="none" xmlns="http://www.w3.org/2000/svg">
<path d="M263 121V5H571V121" stroke="#AACE45" stroke-width="10"/>
<path d="M571 325V441L263 441V325" stroke="#00AA5A" stroke-width="10"/>
<path d="M400.5 333L404.161 405.4C404.717 416.394 403.48 427.404 400.5 438V438H412.5V438C410.176 427.377 409.216 416.5 409.644 405.634L412.5 333" stroke="#00AA5A" stroke-width="15.1317"/>
<circle cx="416" cy="116" r="39" fill="#AACE45"/>
<path d="M300.409 151.77C243 114.311 173.985 134.737 173.985 134.737L183.882 171.667C199.896 231.419 239.65 282.023 293.914 311.726C298.991 314.505 304.319 316.798 309.828 318.574L322.645 322.706C341.617 328.821 361.603 331.166 381.476 329.609L415.416 326.949C415.416 326.949 416.741 269.493 381.99 228.024C373.772 218.217 367.011 208.05 362.364 202.066C347.362 182.746 344.242 180.37 300.409 151.77Z" fill="#00AA5A" stroke="#00AA5A" stroke-width="15.1317"/>
<path d="M611.975 251.622C660.552 203.256 654.921 131.502 654.921 131.502L616.74 133.504C554.964 136.745 497.201 165.11 456.865 212.012C453.091 216.4 449.74 221.135 446.858 226.154L440.152 237.833C430.225 255.119 423.776 274.18 421.168 293.942L416.713 327.694C416.713 327.694 472.638 340.936 520.426 315.566C531.727 309.567 543.078 305.067 549.897 301.766C571.914 291.109 574.886 288.551 611.975 251.622Z" fill="#00AA5A" stroke="#00AA5A" stroke-width="15.1317"/>
<path d="M48.5829 497.771C57.0514 497.771 63.0686 499.629 66.6343 503.343C69.3086 506.166 70.6457 509.731 70.6457 514.04C70.6457 515.526 70.4971 517.086 70.2 518.72L69.1971 524.069C68.38 528.303 66.7829 531.609 64.4057 533.986C62.1029 536.363 60.06 537.551 58.2771 537.551L58.1657 538.443C60.2457 538.443 62.3629 539.594 64.5172 541.897C66.6714 544.2 67.7486 546.911 67.7486 550.031C67.7486 551.294 67.6 552.631 67.3029 554.043L66.6343 557.497C65.4457 563.886 62.5857 568.9 58.0543 572.54C53.5971 576.18 47.3571 578 39.3343 578H2.11714L16.2686 497.771H48.5829ZM38.5543 545.24H27.9686L25.2943 560.617H35.88C36.0286 560.617 36.1771 560.617 36.3257 560.617C39.7429 560.617 42.4543 559.837 44.46 558.277C46.4657 556.643 47.4686 554.674 47.4686 552.371C47.4686 547.617 44.4971 545.24 38.5543 545.24ZM41.5629 515.154H33.2057L30.3086 531.757H38.5543C45.6857 531.757 49.2514 528.637 49.2514 522.397C49.2514 520.243 48.5829 518.497 47.2457 517.16C45.9829 515.823 44.0886 515.154 41.5629 515.154ZM120.702 497.771L106.662 578H86.4938L100.645 497.771H120.702ZM176.892 496.991C194.795 496.991 203.746 504.309 203.746 518.943C203.746 521.394 203.486 524.031 202.966 526.854L199.066 549.14C197.283 559.466 193.421 567.117 187.478 572.094C181.535 577.071 173.178 579.56 162.406 579.56C151.635 579.56 144.132 577.071 139.898 572.094C137.001 568.677 135.552 563.96 135.552 557.943C135.552 555.269 135.849 552.334 136.443 549.14L140.343 526.854C143.835 506.946 156.018 496.991 176.892 496.991ZM165.415 562.289C169.129 562.289 172.101 561.323 174.329 559.391C176.558 557.46 178.118 553.894 179.009 548.694L182.798 527.3C183.021 525.814 183.132 524.477 183.132 523.289C183.132 517.271 180.086 514.263 173.995 514.263C166.343 514.411 161.775 518.757 160.289 527.3L156.501 548.694C156.203 550.551 156.055 552.483 156.055 554.489C156.055 559.689 159.175 562.289 165.415 562.289ZM297.589 515.154H270.178L259.146 578H238.978L250.009 515.154H222.486L225.606 497.771H300.709L297.589 515.154ZM362.807 578H306.87L321.021 497.771H376.959L373.839 515.154H337.959L335.396 530.197H365.036L361.916 547.58H332.276L330.047 560.617H365.927L362.807 578ZM414.977 579.56C404.354 579.56 396.999 577.257 392.914 572.651C390.091 569.383 388.679 564.814 388.679 558.946C388.679 556.42 388.939 553.709 389.459 550.811L394.028 525.183C397.371 506.389 409.442 496.991 430.242 496.991C438.859 496.991 445.397 498.849 449.854 502.563C454.311 506.203 456.539 511.217 456.539 517.606C456.539 520.577 456.094 523.549 455.202 526.52C454.385 529.417 453.568 531.571 452.751 532.983L451.525 535.211H431.802C434.254 532.389 435.479 528.377 435.479 523.177C435.479 520.429 434.774 518.274 433.362 516.714C431.951 515.08 429.871 514.263 427.122 514.263C419.619 514.263 415.162 518.423 413.751 526.743L409.851 549.251C409.479 551.183 409.294 553.077 409.294 554.934C409.294 559.837 412.228 562.289 418.097 562.289C425.154 562.289 429.388 558.314 430.799 550.366H450.857L450.299 553.597C447.328 570.906 435.554 579.56 414.977 579.56ZM546.068 497.771L532.028 578H511.859L516.985 549.029H495.256L490.242 578H470.074L484.225 497.771H504.282L498.265 531.646H519.994L526.011 497.771H546.068ZM618.106 555.157C618.106 560.283 621.784 562.846 629.138 562.846C636.566 562.846 640.281 560.543 640.281 555.937C640.281 553.486 639.018 551.48 636.492 549.92C633.966 548.36 630.884 547.06 627.244 546.02C623.678 544.98 620.075 543.791 616.435 542.454C612.869 541.043 609.824 538.889 607.298 535.991C604.772 533.02 603.509 529.343 603.509 524.96C603.509 506.314 615.506 496.991 639.501 496.991C648.266 496.991 654.878 498.663 659.335 502.006C663.866 505.274 666.132 509.843 666.132 515.711C666.132 517.866 665.835 519.946 665.241 521.951C664.721 523.883 664.164 525.257 663.569 526.074L662.678 527.411H642.955C644.589 525.703 645.406 523.549 645.406 520.949C645.406 516.12 642.249 513.706 635.935 513.706C627.986 513.706 624.012 516.231 624.012 521.283C624.012 523.809 625.275 525.814 627.801 527.3C630.326 528.786 633.372 529.974 636.938 530.866C640.578 531.683 644.218 532.723 647.858 533.986C651.498 535.249 654.581 537.366 657.106 540.337C659.632 543.234 660.895 547.023 660.895 551.703C660.895 561.137 658.072 568.157 652.426 572.763C646.781 577.294 638.089 579.56 626.352 579.56C614.615 579.56 606.592 577.48 602.284 573.32C599.089 570.2 597.492 565.891 597.492 560.394C597.492 558.314 597.715 556.049 598.161 553.597L598.495 551.814H618.552L618.329 553.151C618.181 553.894 618.106 554.563 618.106 555.157ZM723.567 496.991C741.47 496.991 750.421 504.309 750.421 518.943C750.421 521.394 750.161 524.031 749.641 526.854L745.741 549.14C743.958 559.466 740.095 567.117 734.152 572.094C728.21 577.071 719.852 579.56 709.081 579.56C698.31 579.56 690.807 577.071 686.572 572.094C683.675 568.677 682.227 563.96 682.227 557.943C682.227 555.269 682.524 552.334 683.118 549.14L687.018 526.854C690.51 506.946 702.692 496.991 723.567 496.991ZM712.09 562.289C715.804 562.289 718.775 561.323 721.004 559.391C723.232 557.46 724.792 553.894 725.684 548.694L729.472 527.3C729.695 525.814 729.807 524.477 729.807 523.289C729.807 517.271 726.761 514.263 720.67 514.263C713.018 514.411 708.45 518.757 706.964 527.3L703.175 548.694C702.878 550.551 702.73 552.483 702.73 554.489C702.73 559.689 705.85 562.289 712.09 562.289ZM800.437 525.963L819.268 497.771H839.325L805.005 547.134L799.545 578H779.377L784.837 547.134L767.9 497.771H789.182L797.874 525.963H800.437Z" fill="white"/>
<path d="M459 289.5C516.454 250.095 546.808 226.561 604 180C545.819 221.214 514.141 245.284 459 289.5Z" fill="white"/>
<path d="M214 164C276.297 219.811 308.502 247.209 366.005 293.638C308.356 241.16 274.95 213.024 214 164Z" fill="white"/>
</svg>
